<?xml version="1.0" encoding="UTF-8" standalone="no"?>
<!-- Created with Inkscape (http://www.inkscape.org/) -->

<svg
   width="133.802mm"
   height="138.28381mm"
   viewBox="0 0 133.802 138.28381"
   version="1.1"
   id="svg1"
   inkscape:version="1.4.2 (ebf0e940d0, 2025-05-08)"
   sodipodi:docname="circle_light_ru.svg"
   xmlns:inkscape="http://www.inkscape.org/namespaces/inkscape"
   xmlns:sodipodi="http://sodipodi.sourceforge.net/DTD/sodipodi-0.dtd"
   xmlns="http://www.w3.org/2000/svg"
   xmlns:svg="http://www.w3.org/2000/svg">
  <sodipodi:namedview
     id="namedview1"
     pagecolor="#ffffff"
     bordercolor="#000000"
     borderopacity="0.25"
     inkscape:showpageshadow="2"
     inkscape:pageopacity="0.0"
     inkscape:pagecheckerboard="0"
     inkscape:deskcolor="#d1d1d1"
     inkscape:document-units="mm"
     inkscape:zoom="0.2815779"
     inkscape:cx="374.6743"
     inkscape:cy="-133.17807"
     inkscape:window-width="992"
     inkscape:window-height="747"
     inkscape:window-x="0"
     inkscape:window-y="0"
     inkscape:window-maximized="0"
     inkscape:current-layer="layer1" />
  <defs
     id="defs1" />
  <g
     inkscape:label="Layer 1"
     inkscape:groupmode="layer"
     id="layer1"
     transform="translate(0.26443244,-381.79376)">
    <g
       transform="matrix(0.5057068,0,0,0.5057068,417.40263,962.7737)"
       style="fill:#f0f0f0;fill-opacity:1"
       id="g400">
      <path
         style="opacity:1;fill:#f0f0f0;fill-opacity:1;fill-rule:nonzero;stroke:none;stroke-width:0;stroke-miterlimit:4;stroke-dasharray:none;stroke-opacity:1"
         d="m -819.88521,-977.46465 v -138.78715 h -6.02191 v 138.78715 z"
         id="path395"
         inkscape:connector-curvature="0" />
      <path
         style="opacity:1;fill:#f0f0f0;fill-opacity:1;fill-rule:nonzero;stroke:none;stroke-width:0;stroke-miterlimit:4;stroke-dasharray:none;stroke-opacity:1"
         d="m -612.16592,-909.70144 v -96.01506 h -6.02186 v 96.01506 z"
         id="path396"
         inkscape:connector-curvature="0" />
      <path
         style="opacity:1;fill:#f0f0f0;fill-opacity:1;fill-rule:nonzero;stroke:none;stroke-width:0;stroke-miterlimit:4;stroke-dasharray:none;stroke-opacity:1"
         d="m -810.00884,-1148.8474 -15.89828,32.5956 213.7412,115.1817 11.1252,-40.2342 z"
         id="path397"
         inkscape:connector-curvature="0"
         sodipodi:nodetypes="ccccc" />
      <path
         inkscape:connector-curvature="0"
         id="path398"
         d="m -561.32379,-977.46465 v -138.78715 h -6.02186 v 138.78715 z"
         style="opacity:1;fill:#f0f0f0;fill-opacity:1;fill-rule:nonzero;stroke:none;stroke-width:0;stroke-miterlimit:4;stroke-dasharray:none;stroke-opacity:1" />
      <path
         inkscape:connector-curvature="0"
         id="path399"
         d="m -769.04303,-909.70144 v -96.01506 h -6.0219 v 96.01506 z"
         style="opacity:1;fill:#f0f0f0;fill-opacity:1;fill-rule:nonzero;stroke:none;stroke-width:0;stroke-miterlimit:4;stroke-dasharray:none;stroke-opacity:1" />
      <path
         sodipodi:nodetypes="ccccc"
         inkscape:connector-curvature="0"
         id="path400"
         d="m -786.19011,-1041.3043 11.12518,40.2342 213.74114,-115.1817 -15.89821,-32.5956 z"
         style="opacity:1;fill:#f0f0f0;fill-opacity:1;fill-rule:nonzero;stroke:none;stroke-width:0;stroke-miterlimit:4;stroke-dasharray:none;stroke-opacity:1" />
    </g>
    <g
       id="g407"
       transform="matrix(2.2719624,0,0,2.2719624,1857.5847,1436.0402)">
      <g
         id="g406">
        <path
           style="font-weight:900;font-size:7.05556px;line-height:0.8;font-family:Montserrat;-inkscape-font-specification:'Montserrat Heavy';fill:#aa0000;stroke-width:0.61251"
           d="m -763.46457,-403.27219 v -4.93889 h 2.37772 q 0.69145,0 1.19239,0.22578 0.508,0.22578 0.78317,0.64911 0.27517,0.41628 0.27517,0.98778 0,0.5715 -0.27517,0.98778 -0.27517,0.41628 -0.78317,0.64911 -0.50094,0.22578 -1.19239,0.22578 h -1.45344 l 0.74083,-0.71261 v 1.92616 z m 1.66511,-1.74272 -0.74083,-0.75494 h 1.34761 q 0.34572,0 0.508,-0.15523 0.16933,-0.15522 0.16933,-0.42333 0,-0.26811 -0.16933,-0.42333 -0.16228,-0.15523 -0.508,-0.15523 h -1.34761 l 0.74083,-0.75494 z"
           id="path401" />
        <path
           style="font-weight:900;font-size:7.05556px;line-height:0.8;font-family:Montserrat;-inkscape-font-specification:'Montserrat Heavy';fill:#aa0000;stroke-width:0.61251"
           d="m -766.72423,-406.37663 h 2.20133 v 1.19944 h -2.20133 z m 0.11288,1.84855 h 2.46945 v 1.25589 h -4.10634 v -4.93889 h 4.01462 v 1.25589 h -2.37773 z"
           id="path402" />
        <path
           style="font-weight:900;font-size:7.05556px;line-height:0.8;font-family:Montserrat;-inkscape-font-specification:'Montserrat Heavy';fill:#aa0000;stroke-width:0.61251"
           d="m -771.88185,-403.27219 v -4.00755 l 0.35983,0.35983 h -1.80622 v -1.29117 h 4.52967 v 1.29117 h -1.80622 l 0.35983,-0.35983 v 4.00755 z"
           id="path403" />
        <path
           style="font-weight:900;font-size:7.05556px;line-height:0.8;font-family:Montserrat;-inkscape-font-specification:'Montserrat Heavy';fill:#aa0000;stroke-width:0.61251"
           d="m -775.68478,-403.1593 q -0.59267,0 -1.10067,-0.18344 -0.50095,-0.1905 -0.87489,-0.53622 -0.36689,-0.34573 -0.5715,-0.81845 -0.20461,-0.47272 -0.20461,-1.04422 0,-0.5715 0.20461,-1.04423 0.20461,-0.47272 0.5715,-0.81844 0.37394,-0.34572 0.87489,-0.52917 0.508,-0.1905 1.10067,-0.1905 0.72672,0 1.28411,0.254 0.56444,0.254 0.93133,0.73378 l -1.05128,0.93839 q -0.21872,-0.27517 -0.48683,-0.42333 -0.26106,-0.15523 -0.59267,-0.15523 -0.26105,0 -0.47272,0.0847 -0.21167,0.0847 -0.36689,0.24695 -0.14817,0.16227 -0.23283,0.39511 -0.0847,0.22578 -0.0847,0.508 0,0.28222 0.0847,0.51505 0.0847,0.22578 0.23283,0.38806 0.15522,0.16228 0.36689,0.24694 0.21167,0.0847 0.47272,0.0847 0.33161,0 0.59267,-0.14817 0.26811,-0.15522 0.48683,-0.43039 l 1.05128,0.93839 q -0.36689,0.47273 -0.93133,0.73378 -0.55739,0.254 -1.28411,0.254 z"
           id="path404" />
        <path
           style="font-weight:900;font-size:7.05556px;line-height:0.8;font-family:Montserrat;-inkscape-font-specification:'Montserrat Heavy';fill:#aa0000;stroke-width:0.61251"
           d="m -784.51128,-403.27219 2.159,-4.93889 h 1.63689 l 2.15901,4.93889 h -1.72156 l -1.59456,-4.14867 h 0.64911 l -1.59455,4.14867 z m 1.28411,-0.86077 0.42334,-1.19945 h 2.27189 l 0.42333,1.19945 z"
           id="path405" />
        <path
           style="font-weight:900;font-size:7.05556px;line-height:0.8;font-family:Montserrat;-inkscape-font-specification:'Montserrat Heavy';fill:#aa0000;stroke-width:0.61251"
           d="m -790.8895,-403.27219 v -4.93889 h 1.36878 l 1.97556,3.22439 h -0.71967 l 1.91911,-3.22439 h 1.36878 l 0.0141,4.93889 h -1.51694 l -0.0141,-2.65289 h 0.23989 l -1.31234,2.20839 h -0.73378 l -1.36878,-2.20839 h 0.29634 v 2.65289 z"
           id="path406" />
      </g>
    </g>
    <g
       id="g411"
       style="fill:#f0f0f0;fill-opacity:1"
       transform="matrix(2.2719624,0,0,2.2719624,1857.5847,1436.0402)">
      <path
         style="font-weight:900;font-size:7.05556px;line-height:0.8;font-family:Montserrat;-inkscape-font-specification:'Montserrat Heavy';fill:#f0f0f0;fill-opacity:1;stroke-width:0.61251"
         d="m -794.52311,-403.27219 v -4.00755 l 0.35983,0.35983 h -1.80622 v -1.29117 h 4.52967 v 1.29117 h -1.80622 l 0.35983,-0.35983 v 4.00755 z"
         id="path407" />
      <path
         style="font-weight:900;font-size:7.05556px;line-height:0.8;font-family:Montserrat;-inkscape-font-specification:'Montserrat Heavy';fill:#f0f0f0;fill-opacity:1;stroke-width:0.61251"
         d="m -798.90461,-406.37663 h 2.20134 v 1.19944 h -2.20134 z m 0.11289,1.84855 h 2.46945 v 1.25589 h -4.10634 v -4.93889 h 4.01461 v 1.25589 h -2.37772 z"
         id="path408" />
      <path
         style="font-weight:900;font-size:7.05556px;line-height:0.8;font-family:Montserrat;-inkscape-font-specification:'Montserrat Heavy';fill:#f0f0f0;fill-opacity:1;stroke-width:0.61251"
         d="m -806.0801,-403.27219 v -4.93889 h 4.77661 v 4.93889 h -1.63689 v -4.0005 l 0.35983,0.35278 h -2.2225 l 0.35984,-0.35278 v 4.0005 z"
         id="path409" />
      <path
         style="font-weight:900;font-size:7.05556px;line-height:0.8;font-family:Montserrat;-inkscape-font-specification:'Montserrat Heavy';fill:#f0f0f0;fill-opacity:1;stroke-width:0.61251"
         d="m -812.4936,-403.27219 2.159,-4.93889 h 1.63689 l 2.159,4.93889 h -1.72155 l -1.59456,-4.14867 h 0.64911 l -1.59455,4.14867 z m 1.28411,-0.86077 0.42334,-1.19945 h 2.27189 l 0.42333,1.19945 z"
         id="path410" />
      <path
         style="font-weight:900;font-size:7.05556px;line-height:0.8;font-family:Montserrat;-inkscape-font-specification:'Montserrat Heavy';fill:#f0f0f0;fill-opacity:1;stroke-width:0.61251"
         d="m -817.72882,-403.27219 v -4.93889 h 4.77662 v 4.93889 h -1.63689 v -4.0005 l 0.35983,0.35278 h -2.2225 l 0.35983,-0.35278 v 4.0005 z"
         id="path411" />
    </g>
  </g>
</svg>
