<svg xmlns="http://www.w3.org/2000/svg" width="505.708" height="522.647" viewBox="0 0 133.802 138.284"><g style="fill:#f0f0f0;fill-opacity:1"><path d="M-819.885-977.465v-138.787h-6.022v138.787zm207.719 67.764v-96.016h-6.022v96.016z" style="opacity:1;fill:#f0f0f0;fill-opacity:1;fill-rule:nonzero;stroke:none;stroke-width:0;stroke-miterlimit:4;stroke-dasharray:none;stroke-opacity:1" transform="translate(417.667 580.98)scale(.5057)"/><path d="m-810.009-1148.847-15.898 32.595 213.741 115.182 11.125-40.234zm248.685 171.382v-138.787h-6.022v138.787zm-207.719 67.764v-96.016h-6.022v96.016z" style="opacity:1;fill:#f0f0f0;fill-opacity:1;fill-rule:nonzero;stroke:none;stroke-width:0;stroke-miterlimit:4;stroke-dasharray:none;stroke-opacity:1" transform="translate(417.667 580.98)scale(.5057)"/><path d="m-786.19-1041.304 11.125 40.234 213.741-115.182-15.898-32.595z" style="opacity:1;fill:#f0f0f0;fill-opacity:1;fill-rule:nonzero;stroke:none;stroke-width:0;stroke-miterlimit:4;stroke-dasharray:none;stroke-opacity:1" transform="translate(417.667 580.98)scale(.5057)"/></g><path d="M-763.465-403.272v-4.94h2.378q.692 0 1.193.227.508.225.783.649.275.416.275.988 0 .571-.275.987t-.783.65q-.501.225-1.193.225h-1.453l.74-.712v1.926zm1.666-1.743-.741-.755h1.347q.346 0 .508-.155.17-.155.17-.423 0-.269-.17-.424-.162-.155-.508-.155h-1.347l.74-.755zm-4.925-1.362h2.201v1.2h-2.201zm.113 1.849h2.47v1.256h-4.107v-4.94h4.014v1.257h-2.377zm-5.271 1.256v-4.008l.36.36h-1.806v-1.291h4.53v1.291h-1.807l.36-.36v4.008zm-3.803.112q-.592 0-1.1-.183-.501-.19-.875-.536-.367-.346-.572-.818-.204-.473-.204-1.045 0-.571.204-1.044.205-.473.572-.818.374-.346.875-.53.508-.19 1.1-.19.727 0 1.284.254.565.254.932.734l-1.052.938q-.218-.275-.486-.423-.262-.155-.593-.155-.261 0-.473.084-.212.085-.367.247-.148.163-.233.395-.084.226-.084.508t.084.515q.085.226.233.389.155.162.367.246.212.085.473.085.331 0 .593-.148.268-.155.486-.43l1.052.938q-.367.473-.932.734-.557.254-1.284.254m-8.826-.113 2.159-4.94h1.637l2.159 4.94h-1.722l-1.595-4.149h.65l-1.595 4.149zm1.284-.861.423-1.2h2.272l.423 1.2zm-7.663.861v-4.94h1.37l1.975 3.225h-.72l1.92-3.224h1.368l.014 4.939h-1.517l-.014-2.653h.24l-1.312 2.208h-.734l-1.369-2.208h.296v2.653z" style="font-weight:900;font-size:7.05556px;line-height:.8;font-family:Montserrat;-inkscape-font-specification:&quot;Montserrat Heavy&quot;;fill:#a00;stroke-width:.61251" transform="translate(1857.85 1054.246)scale(2.27196)"/><g style="fill:#f0f0f0;fill-opacity:1"><path d="M-794.523-403.272v-4.008l.36.36h-1.806v-1.291h4.53v1.291h-1.807l.36-.36v4.008zm-4.382-3.105h2.202v1.2h-2.202zm.113 1.849h2.47v1.256h-4.107v-4.94h4.015v1.257h-2.378zm-7.288 1.256v-4.94h4.777v4.94h-1.637v-4l.36.352h-2.223l.36-.353v4zm-6.414 0 2.16-4.94h1.636l2.16 4.94h-1.722l-1.595-4.149h.65l-1.595 4.149zm1.285-.861.423-1.2h2.272l.423 1.2zm-6.52.861v-4.94h4.777v4.94h-1.637v-4l.36.352h-2.223l.36-.353v4z" style="font-weight:900;font-size:7.05556px;line-height:.8;font-family:Montserrat;-inkscape-font-specification:&quot;Montserrat Heavy&quot;;fill:#f0f0f0;fill-opacity:1;stroke-width:.61251" transform="translate(1857.85 1054.246)scale(2.27196)"/></g></svg>