<svg xmlns="http://www.w3.org/2000/svg" width="505.707" height="522.647" viewBox="0 0 133.802 138.284"><g style="fill:#a00;fill-opacity:1"><path d="M-721.512-442.873v-10.76h5.18q1.506 0 2.598.492 1.106.492 1.706 1.414.6.907.6 2.152t-.6 2.152q-.6.892-1.706 1.368-1.092.477-2.598.477h-3.166l1.613-1.491v4.196zm6.44 0-2.643-3.92h3.842l2.675 3.92zm-2.813-3.797-1.613-1.644h2.935q.754 0 1.107-.338.369-.339.369-.923t-.369-.922q-.353-.338-1.107-.338h-2.935l1.613-1.645zm-10.651-2.966h4.795v2.613h-4.795zm.246 4.027h5.38v2.736h-8.946v-10.76h8.745v2.737h-5.18zm-11.283 2.736v-7.947h-3.15v-2.812h9.929v2.812h-3.151v7.947zm-8.269.246q-1.353 0-2.613-.307-1.26-.308-2.075-.8l1.168-2.644q.769.446 1.706.723.953.261 1.845.261.522 0 .814-.061.308-.077.446-.2.139-.138.139-.323 0-.292-.323-.461t-.861-.277q-.523-.123-1.153-.246-.63-.138-1.276-.353-.63-.215-1.168-.569-.522-.353-.845-.922-.323-.584-.323-1.445 0-.999.553-1.814.57-.83 1.676-1.322 1.122-.491 2.782-.491 1.091 0 2.152.23 1.06.23 1.906.707l-1.092 2.629q-.799-.4-1.552-.6-.738-.2-1.445-.2-.522 0-.83.093-.307.092-.446.245-.123.154-.123.339 0 .276.323.445.323.154.846.262.538.107 1.168.23.645.123 1.276.338.63.216 1.152.57.538.353.861.921t.323 1.414q0 .984-.569 1.814-.553.815-1.66 1.322-1.107.492-2.782.492m-17.568-.246 4.703-10.76h3.566l4.703 10.76h-3.75l-3.474-9.038h1.414l-3.474 9.038zm2.797-1.875.922-2.613h4.95l.922 2.613zm-16.293 1.875v-10.76h2.982l4.304 7.025h-1.568l4.18-7.024h2.983l.03 10.759h-3.304l-.031-5.78h.522l-2.859 4.812h-1.598l-2.982-4.811h.646v5.779z" style="font-weight:900;font-size:15.3707px;line-height:.8;font-family:Montserrat;-inkscape-font-specification:&quot;Montserrat Heavy&quot;;fill:#a00;fill-opacity:1;stroke-width:1.33437" transform="translate(845 580.91)"/></g><path d="M-786.622-442.873v-7.947h-3.151v-2.812h9.93v2.812h-3.152v7.947zm-9.361-6.763h4.796v2.613h-4.796zm.246 4.027h5.38v2.736h-8.946v-10.76h8.746v2.737h-5.18zm-14.833 2.736v-10.76h5.18q1.507 0 2.598.492 1.107.492 1.706 1.414.6.907.6 2.152t-.6 2.152-1.706 1.414q-1.091.492-2.598.492h-3.166l1.614-1.552v4.196zm3.628-3.797-1.614-1.644h2.936q.753 0 1.106-.338.37-.339.37-.923t-.37-.922q-.353-.338-1.106-.338h-2.936l1.614-1.645zm-14.894 3.797v-10.76h5.18q1.506 0 2.597.492 1.107.492 1.706 1.414.6.907.6 2.152t-.6 2.152-1.706 1.414q-1.091.492-2.597.492h-3.167l1.614-1.552v4.196zm3.627-3.797-1.614-1.644h2.936q.753 0 1.107-.338.369-.339.369-.923t-.37-.922q-.353-.338-1.106-.338h-2.936l1.614-1.645zm-10.529 4.043q-2.474 0-3.858-1.337-1.383-1.338-1.383-3.75v-5.918h3.627v5.81q0 1.23.446 1.752.446.507 1.199.507.768 0 1.199-.507.446-.523.446-1.752v-5.81h3.566v5.917q0 2.413-1.384 3.75t-3.858 1.338m-16.262-.246v-10.76h5.18q1.506 0 2.598.492 1.106.492 1.706 1.414.6.907.6 2.152t-.6 2.152-1.706 1.414q-1.092.492-2.598.492h-3.166l1.614-1.552v4.196zm3.628-3.797-1.614-1.644h2.935q.754 0 1.107-.338.369-.339.369-.923t-.369-.922q-.353-.338-1.107-.338h-2.935l1.614-1.645z" style="font-weight:900;font-size:15.3707px;line-height:.8;font-family:Montserrat;-inkscape-font-specification:&quot;Montserrat Heavy&quot;;fill:#2f2f2f;stroke-width:1.33437" transform="translate(845 580.91)"/><g style="fill:#2f2f2f;fill-opacity:1"><path d="M-819.885-977.465v-138.787h-6.022v138.787zm207.719 67.764v-96.016h-6.022v96.016z" style="opacity:1;fill:#2f2f2f;fill-opacity:1;fill-rule:nonzero;stroke:none;stroke-width:0;stroke-miterlimit:4;stroke-dasharray:none;stroke-opacity:1" transform="translate(417.667 580.98)scale(.5057)"/><path d="m-810.009-1148.847-15.898 32.595 213.741 115.182 11.125-40.234zm248.685 171.382v-138.787h-6.022v138.787zm-207.719 67.764v-96.016h-6.022v96.016z" style="opacity:1;fill:#2f2f2f;fill-opacity:1;fill-rule:nonzero;stroke:none;stroke-width:0;stroke-miterlimit:4;stroke-dasharray:none;stroke-opacity:1" transform="translate(417.667 580.98)scale(.5057)"/><path d="m-786.19-1041.304 11.125 40.234 213.741-115.182-15.898-32.595z" style="opacity:1;fill:#2f2f2f;fill-opacity:1;fill-rule:nonzero;stroke:none;stroke-width:0;stroke-miterlimit:4;stroke-dasharray:none;stroke-opacity:1" transform="translate(417.667 580.98)scale(.5057)"/></g></svg>