<?xml version="1.0" encoding="UTF-8" standalone="no"?>
<!-- Created with Inkscape (http://www.inkscape.org/) -->

<svg
   width="1003.7936mm"
   height="120.93774mm"
   viewBox="0 0 1003.7936 120.93773"
   version="1.1"
   id="svg1"
   inkscape:version="1.4.2 (ebf0e940d0, 2025-05-08)"
   sodipodi:docname="horizontal_dark_en.svg"
   xmlns:inkscape="http://www.inkscape.org/namespaces/inkscape"
   xmlns:sodipodi="http://sodipodi.sourceforge.net/DTD/sodipodi-0.dtd"
   xmlns="http://www.w3.org/2000/svg"
   xmlns:svg="http://www.w3.org/2000/svg">
  <sodipodi:namedview
     id="namedview1"
     pagecolor="#ffffff"
     bordercolor="#000000"
     borderopacity="0.25"
     inkscape:showpageshadow="2"
     inkscape:pageopacity="0.0"
     inkscape:pagecheckerboard="0"
     inkscape:deskcolor="#d1d1d1"
     inkscape:document-units="mm"
     inkscape:zoom="0.09955282"
     inkscape:cx="2506.2073"
     inkscape:cy="828.70581"
     inkscape:window-width="992"
     inkscape:window-height="747"
     inkscape:window-x="0"
     inkscape:window-y="0"
     inkscape:window-maximized="0"
     inkscape:current-layer="layer1" />
  <defs
     id="defs1" />
  <g
     inkscape:label="Layer 1"
     inkscape:groupmode="layer"
     id="layer1"
     transform="translate(546.36443,-150.28335)">
    <g
       id="g459"
       transform="matrix(6.3959115,0,0,6.3959115,6233.5713,3069.7334)">
      <g
         id="g452"
         style="fill:#aa0000;fill-opacity:1"
         transform="translate(-191.90089)">
        <path
           style="font-weight:900;font-size:15.3707px;line-height:0.8;font-family:Montserrat;-inkscape-font-specification:'Montserrat Heavy';fill:#aa0000;fill-opacity:1;stroke-width:1.33437"
           d="m -721.51199,-442.87299 v -10.75949 h 5.17992 q 1.50633,0 2.59765,0.49187 1.10669,0.49186 1.70615,1.4141 0.59946,0.90687 0.59946,2.1519 0,1.24503 -0.59946,2.1519 -0.59946,0.8915 -1.70615,1.36799 -1.09132,0.47649 -2.59765,0.47649 h -3.16636 l 1.61392,-1.49096 v 4.1962 z m 6.44032,0 -2.64376,-3.91952 h 3.84268 l 2.6745,3.91952 z m -2.81284,-3.79656 -1.61392,-1.64466 h 2.9358 q 0.75317,0 1.10669,-0.33816 0.3689,-0.33815 0.3689,-0.92224 0,-0.58409 -0.3689,-0.92224 -0.35352,-0.33816 -1.10669,-0.33816 h -2.9358 l 1.61392,-1.64466 z"
           id="path447" />
        <path
           style="font-weight:900;font-size:15.3707px;line-height:0.8;font-family:Montserrat;-inkscape-font-specification:'Montserrat Heavy';fill:#aa0000;fill-opacity:1;stroke-width:1.33437"
           d="m -728.53638,-449.63609 h 4.79566 v 2.61302 h -4.79566 z m 0.24593,4.02712 h 5.37975 v 2.73598 h -8.94575 v -10.75949 h 8.74593 v 2.73599 h -5.17993 z"
           id="path448" />
        <path
           style="font-weight:900;font-size:15.3707px;line-height:0.8;font-family:Montserrat;-inkscape-font-specification:'Montserrat Heavy';fill:#aa0000;fill-opacity:1;stroke-width:1.33437"
           d="m -739.57254,-442.87299 v -7.94665 h -3.15099 v -2.81284 h 9.92947 v 2.81284 h -3.15099 v 7.94665 z"
           id="path449" />
        <path
           style="font-weight:900;font-size:15.3707px;line-height:0.8;font-family:Montserrat;-inkscape-font-specification:'Montserrat Heavy';fill:#aa0000;fill-opacity:1;stroke-width:1.33437"
           d="m -747.84196,-442.62705 q -1.35262,0 -2.61302,-0.30742 -1.2604,-0.30741 -2.07504,-0.79928 l 1.16817,-2.64376 q 0.76853,0.44575 1.70615,0.72243 0.95298,0.2613 1.84448,0.2613 0.5226,0 0.81465,-0.0615 0.30741,-0.0769 0.44575,-0.19982 0.13833,-0.13834 0.13833,-0.32279 0,-0.29204 -0.32278,-0.46112 -0.32278,-0.16908 -0.86076,-0.27667 -0.5226,-0.12297 -1.1528,-0.24593 -0.6302,-0.13834 -1.27577,-0.35353 -0.6302,-0.21519 -1.16817,-0.56871 -0.52261,-0.35353 -0.84539,-0.92225 -0.32279,-0.58408 -0.32279,-1.44484 0,-0.9991 0.55335,-1.81374 0.56871,-0.83002 1.67541,-1.32188 1.12206,-0.49187 2.78209,-0.49187 1.09132,0 2.1519,0.23056 1.06058,0.23056 1.90597,0.70706 l -1.09132,2.62839 q -0.79928,-0.39964 -1.55244,-0.59946 -0.7378,-0.19982 -1.44485,-0.19982 -0.5226,0 -0.83002,0.0922 -0.30741,0.0922 -0.44575,0.24593 -0.12296,0.15371 -0.12296,0.33816 0,0.27667 0.32278,0.44575 0.32279,0.15371 0.84539,0.2613 0.53797,0.1076 1.16817,0.23056 0.64557,0.12297 1.27577,0.33816 0.6302,0.21519 1.1528,0.56871 0.53798,0.35353 0.86076,0.92225 0.32279,0.56871 0.32279,1.4141 0,0.98372 -0.56872,1.81374 -0.55334,0.81465 -1.66003,1.32188 -1.10669,0.49187 -2.7821,0.49187 z"
           id="path450" />
        <path
           style="font-weight:900;font-size:15.3707px;line-height:0.8;font-family:Montserrat;-inkscape-font-specification:'Montserrat Heavy';fill:#aa0000;fill-opacity:1;stroke-width:1.33437"
           d="m -765.41067,-442.87299 4.70344,-10.75949 h 3.566 l 4.70344,10.75949 h -3.75046 l -3.47377,-9.03797 h 1.4141 l -3.47378,9.03797 z m 2.79747,-1.87522 0.92224,-2.61302 h 4.94937 l 0.92224,2.61302 z"
           id="path451" />
        <path
           style="font-weight:900;font-size:15.3707px;line-height:0.8;font-family:Montserrat;-inkscape-font-specification:'Montserrat Heavy';fill:#aa0000;fill-opacity:1;stroke-width:1.33437"
           d="m -778.90612,-442.87299 v -10.75949 h 2.98192 l 4.30379,7.02441 h -1.56781 l 4.18083,-7.02441 h 2.98192 l 0.0307,10.75949 h -3.3047 l -0.0307,-5.77938 h 0.5226 l -2.85895,4.81103 h -1.59855 l -2.98192,-4.81103 h 0.64557 v 5.77938 z"
           id="path452" />
      </g>
      <g
         id="g458"
         transform="translate(-191.90089)">
        <path
           style="font-weight:900;font-size:15.3707px;line-height:0.8;font-family:Montserrat;-inkscape-font-specification:'Montserrat Heavy';fill:#2f2f2f;stroke-width:1.33437"
           d="m -786.6222,-442.87299 v -7.94665 h -3.15099 v -2.81284 h 9.92947 v 2.81284 h -3.15099 v 7.94665 z"
           id="path453" />
        <path
           style="font-weight:900;font-size:15.3707px;line-height:0.8;font-family:Montserrat;-inkscape-font-specification:'Montserrat Heavy';fill:#2f2f2f;stroke-width:1.33437"
           d="m -795.98293,-449.63609 h 4.79566 v 2.61302 h -4.79566 z m 0.24593,4.02712 h 5.37975 v 2.73598 h -8.94575 v -10.75949 h 8.74593 v 2.73599 h -5.17993 z"
           id="path454" />
        <path
           style="font-weight:900;font-size:15.3707px;line-height:0.8;font-family:Montserrat;-inkscape-font-specification:'Montserrat Heavy';fill:#2f2f2f;stroke-width:1.33437"
           d="m -810.56969,-442.87299 v -10.75949 h 5.17992 q 1.50633,0 2.59765,0.49187 1.10669,0.49186 1.70615,1.4141 0.59946,0.90687 0.59946,2.1519 0,1.24503 -0.59946,2.1519 -0.59946,0.90687 -1.70615,1.4141 -1.09132,0.49186 -2.59765,0.49186 h -3.16636 l 1.61392,-1.55244 v 4.1962 z m 3.62748,-3.79656 -1.61392,-1.64466 h 2.9358 q 0.75317,0 1.10669,-0.33816 0.3689,-0.33815 0.3689,-0.92224 0,-0.58409 -0.3689,-0.92224 -0.35352,-0.33816 -1.10669,-0.33816 h -2.9358 l 1.61392,-1.64466 z"
           id="path455" />
        <path
           style="font-weight:900;font-size:15.3707px;line-height:0.8;font-family:Montserrat;-inkscape-font-specification:'Montserrat Heavy';fill:#2f2f2f;stroke-width:1.33437"
           d="m -821.83638,-442.87299 v -10.75949 h 5.17992 q 1.50633,0 2.59765,0.49187 1.10669,0.49186 1.70615,1.4141 0.59946,0.90687 0.59946,2.1519 0,1.24503 -0.59946,2.1519 -0.59946,0.90687 -1.70615,1.4141 -1.09132,0.49186 -2.59765,0.49186 h -3.16636 l 1.61392,-1.55244 v 4.1962 z m 3.62748,-3.79656 -1.61392,-1.64466 h 2.9358 q 0.75317,0 1.10669,-0.33816 0.3689,-0.33815 0.3689,-0.92224 0,-0.58409 -0.3689,-0.92224 -0.35352,-0.33816 -1.10669,-0.33816 h -2.9358 l 1.61392,-1.64466 z"
           id="path456" />
        <path
           style="font-weight:900;font-size:15.3707px;line-height:0.8;font-family:Montserrat;-inkscape-font-specification:'Montserrat Heavy';fill:#2f2f2f;stroke-width:1.33437"
           d="m -828.7378,-442.62705 q -2.47469,0 -3.85805,-1.33726 -1.38336,-1.33725 -1.38336,-3.75045 v -5.91772 h 3.62748 v 5.81013 q 0,1.22965 0.44575,1.75226 0.44575,0.50723 1.19892,0.50723 0.76853,0 1.19891,-0.50723 0.44575,-0.52261 0.44575,-1.75226 v -5.81013 h 3.566 v 5.91772 q 0,2.4132 -1.38336,3.75045 -1.38336,1.33726 -3.85804,1.33726 z"
           id="path457" />
        <path
           style="font-weight:900;font-size:15.3707px;line-height:0.8;font-family:Montserrat;-inkscape-font-specification:'Montserrat Heavy';fill:#2f2f2f;stroke-width:1.33437"
           d="m -844.99997,-442.87299 v -10.75949 h 5.17993 q 1.50633,0 2.59765,0.49187 1.10669,0.49186 1.70614,1.4141 0.59946,0.90687 0.59946,2.1519 0,1.24503 -0.59946,2.1519 -0.59945,0.90687 -1.70614,1.4141 -1.09132,0.49186 -2.59765,0.49186 h -3.16637 l 1.61393,-1.55244 v 4.1962 z m 3.62749,-3.79656 -1.61393,-1.64466 h 2.93581 q 0.75316,0 1.10669,-0.33816 0.36889,-0.33815 0.36889,-0.92224 0,-0.58409 -0.36889,-0.92224 -0.35353,-0.33816 -1.10669,-0.33816 h -2.93581 l 1.61393,-1.64466 z"
           id="path458" />
      </g>
    </g>
    <g
       transform="matrix(0.5057068,0,0,0.5057068,-128.69758,731.26329)"
       style="fill:#2f2f2f;fill-opacity:1"
       id="g464">
      <path
         style="opacity:1;fill:#2f2f2f;fill-opacity:1;fill-rule:nonzero;stroke:none;stroke-width:0;stroke-miterlimit:4;stroke-dasharray:none;stroke-opacity:1"
         d="m -819.88521,-977.46465 v -138.78715 h -6.02191 v 138.78715 z"
         id="path459"
         inkscape:connector-curvature="0" />
      <path
         style="opacity:1;fill:#2f2f2f;fill-opacity:1;fill-rule:nonzero;stroke:none;stroke-width:0;stroke-miterlimit:4;stroke-dasharray:none;stroke-opacity:1"
         d="m -612.16592,-909.70144 v -96.01506 h -6.02186 v 96.01506 z"
         id="path460"
         inkscape:connector-curvature="0" />
      <path
         style="opacity:1;fill:#2f2f2f;fill-opacity:1;fill-rule:nonzero;stroke:none;stroke-width:0;stroke-miterlimit:4;stroke-dasharray:none;stroke-opacity:1"
         d="m -810.00884,-1148.8474 -15.89828,32.5956 213.7412,115.1817 11.1252,-40.2342 z"
         id="path461"
         inkscape:connector-curvature="0"
         sodipodi:nodetypes="ccccc" />
      <path
         inkscape:connector-curvature="0"
         id="path462"
         d="m -561.32379,-977.46465 v -138.78715 h -6.02186 v 138.78715 z"
         style="opacity:1;fill:#2f2f2f;fill-opacity:1;fill-rule:nonzero;stroke:none;stroke-width:0;stroke-miterlimit:4;stroke-dasharray:none;stroke-opacity:1" />
      <path
         inkscape:connector-curvature="0"
         id="path463"
         d="m -769.04303,-909.70144 v -96.01506 h -6.0219 v 96.01506 z"
         style="opacity:1;fill:#2f2f2f;fill-opacity:1;fill-rule:nonzero;stroke:none;stroke-width:0;stroke-miterlimit:4;stroke-dasharray:none;stroke-opacity:1" />
      <path
         sodipodi:nodetypes="ccccc"
         inkscape:connector-curvature="0"
         id="path464"
         d="m -786.19011,-1041.3043 11.12518,40.2342 213.74114,-115.1817 -15.89821,-32.5956 z"
         style="opacity:1;fill:#2f2f2f;fill-opacity:1;fill-rule:nonzero;stroke:none;stroke-width:0;stroke-miterlimit:4;stroke-dasharray:none;stroke-opacity:1" />
    </g>
  </g>
</svg>
